<?xml version="1.0" standalone="no"?>
<!DOCTYPE svg PUBLIC "-//W3C//DTD SVG 20010904//EN"
 "http://www.w3.org/TR/2001/REC-SVG-20010904/DTD/svg10.dtd">
<svg version="1.0" xmlns="http://www.w3.org/2000/svg"
 width="112.000000pt" height="50.000000pt" viewBox="0 0 112.000000 50.000000"
 preserveAspectRatio="xMidYMid meet">
<metadata>
Created by potrace 1.10, written by Peter Selinger 2001-2011
</metadata>
<g transform="translate(0.000000,50.000000) scale(0.100000,-0.100000)"
fill="#00ff1e" stroke="none">
<path d="M445 473 c-72 -9 -184 -37 -234 -60 -265 -116 -191 -319 141 -388 96
-21 328 -20 421 1 149 34 265 108 288 184 34 114 -131 229 -371 259 -81 11
-182 12 -245 4z m340 -52 c38 -11 74 -17 79 -14 5 4 6 1 1 -7 -6 -10 -4 -12
11 -6 10 4 15 4 12 0 -4 -3 14 -20 39 -38 56 -37 88 -92 78 -135 -7 -31 -40
-72 -85 -104 -24 -17 -23 -17 8 0 19 10 47 33 63 51 53 60 30 146 -54 197 -23
14 -37 25 -30 25 23 0 98 -66 116 -103 22 -45 16 -85 -20 -127 -32 -39 -109
-84 -129 -76 -8 3 -12 2 -9 -4 3 -5 -17 -16 -45 -24 -91 -27 -209 -39 -319
-33 -286 17 -469 139 -406 271 10 20 21 36 25 36 4 0 -1 -18 -12 -40 -13 -26
-18 -49 -13 -69 7 -31 61 -93 98 -112 15 -7 13 -3 -8 15 -16 14 -33 25 -37 26
-3 0 -16 20 -28 44 -20 42 -20 46 -5 83 8 21 30 51 48 66 17 16 25 25 17 21
-8 -4 -23 -14 -32 -22 -10 -8 -18 -11 -18 -6 0 14 53 42 69 36 8 -3 11 0 7 7
-5 7 -1 9 10 4 12 -4 15 -3 10 5 -5 8 -1 10 10 5 11 -4 15 -3 11 4 -5 7 1 9
15 5 16 -4 19 -2 13 8 -5 8 -4 11 2 7 5 -3 27 -1 49 5 123 34 340 34 459 -1z"/>
<path d="M582 428 c-7 -7 -12 -17 -12 -22 0 -6 7 -2 16 9 13 17 16 18 24 5 7
-11 4 -17 -8 -22 -13 -5 -13 -7 -2 -7 8 0 21 3 28 8 11 6 10 11 -3 25 -20 19
-27 20 -43 4z"/>
<path d="M423 423 c-10 -4 -10 -10 -2 -25 11 -20 12 -20 21 -4 11 20 0 36 -19
29z"/>
<path d="M480 421 c0 -14 28 -33 40 -26 13 8 13 35 0 35 -5 0 -7 -8 -4 -17 5
-17 5 -17 -9 0 -15 18 -27 22 -27 8z"/>
<path d="M676 411 c-16 -17 -16 -19 0 -25 16 -6 44 9 44 24 0 17 -29 18 -44 1z"/>
<path d="M762 403 c-6 -3 -10 -9 -7 -14 4 -5 0 -6 -8 -3 -8 3 -18 1 -22 -5
-10 -17 34 -13 51 3 15 16 7 26 -14 19z"/>
<path d="M326 380 c13 -14 27 -18 38 -14 17 6 16 8 -5 20 -39 21 -57 18 -33
-6z"/>
<path d="M803 378 c-27 -13 -29 -23 -8 -32 8 -3 15 0 15 6 0 6 8 17 18 24 20
16 6 17 -25 2z"/>
<path d="M284 365 c11 -8 27 -15 35 -15 10 1 7 6 -9 15 -33 19 -50 18 -26 0z"/>
<path d="M450 359 c0 -6 -7 -8 -17 -5 -18 7 -84 -11 -81 -22 2 -4 -12 -21 -30
-39 -39 -38 -43 -31 -4 10 24 26 24 28 5 18 -41 -21 -47 -47 -23 -96 17 -36
32 -50 78 -72 53 -26 65 -28 182 -28 113 0 130 2 174 25 91 46 109 98 52 148
-56 49 -132 72 -241 72 -63 0 -95 -4 -95 -11z m187 -20 c35 -6 78 -21 96 -33
17 -12 40 -25 50 -29 21 -8 23 -37 2 -37 -8 0 -16 -4 -16 -10 -1 -5 -2 -16 -3
-22 -1 -7 -7 -12 -13 -11 -7 2 -14 -6 -18 -16 -7 -23 -27 -32 -85 -37 -39 -3
-41 -2 -20 7 l25 10 -25 19 c-14 10 -26 17 -29 15 -2 -2 -10 3 -18 11 -15 15
-55 10 -61 -7 -2 -5 -8 -6 -13 -3 -6 3 -6 11 2 20 20 24 -17 28 -47 5 -14 -11
-31 -18 -37 -14 -7 4 -6 8 3 11 19 7 40 28 40 41 0 5 -10 13 -22 17 -13 4 -26
11 -29 17 -9 13 -29 0 -29 -19 0 -9 11 -14 30 -14 17 0 30 -4 30 -9 0 -13 -34
-24 -38 -12 -4 13 -32 15 -32 2 0 -5 -3 -17 -7 -27 -5 -13 -3 -16 9 -11 10 3
19 0 22 -9 6 -16 39 -18 66 -4 13 7 21 7 25 0 3 -5 -1 -10 -9 -10 -9 0 -16 -4
-16 -10 0 -12 17 -13 24 -1 10 16 72 21 106 10 33 -12 33 -12 9 -21 -13 -5
-64 -10 -112 -11 -74 -2 -91 1 -101 16 -7 9 -18 17 -24 17 -7 0 -19 12 -29 28
-10 15 -21 30 -26 33 -10 7 2 39 15 39 5 0 23 9 39 21 28 19 127 47 178 48 13
1 53 -4 88 -10z"/>
<path d="M484 314 c-6 -3 -9 -16 -6 -29 6 -34 47 -45 68 -19 13 18 15 18 25 2
14 -25 45 -22 63 4 11 16 13 25 4 35 -14 18 -53 16 -69 -3 -11 -14 -13 -14
-21 0 -9 15 -40 20 -64 10z m131 -24 c3 -5 -1 -10 -10 -10 -9 0 -13 5 -10 10
3 6 8 10 10 10 2 0 7 -4 10 -10z"/>
<path d="M675 279 c-16 -10 -30 -24 -30 -31 0 -7 -8 -13 -17 -13 -20 0 -22 -3
-13 -27 4 -10 16 -15 30 -13 14 1 22 -2 19 -6 -3 -5 4 -9 15 -9 12 0 21 5 21
12 0 6 3 9 6 5 9 -9 34 19 34 37 0 17 -25 22 -35 6 -3 -5 -12 -7 -20 -3 -8 3
-15 1 -15 -5 0 -6 6 -12 13 -15 6 -2 10 -7 7 -10 -3 -3 -14 1 -24 9 -16 11
-17 16 -6 29 7 8 22 15 35 15 27 0 35 8 28 26 -7 18 -11 17 -48 -7z"/>
<path d="M220 350 c0 -10 5 -12 33 -14 6 -1 14 -4 17 -8 3 -4 12 -3 20 2 19
12 13 16 -32 24 -24 4 -38 3 -38 -4z"/>
<path d="M841 349 c-19 -8 -22 -12 -12 -22 8 -8 14 -9 19 -1 4 6 16 16 27 22
25 14 1 15 -34 1z"/>
<path d="M181 316 c-9 -11 -3 -15 26 -19 32 -6 66 5 52 16 -14 13 -69 15 -78
3z"/>
<path d="M872 298 c2 -6 10 -14 18 -16 7 -3 10 0 7 5 -3 5 6 8 24 5 17 -3 29
0 29 7 0 6 -18 11 -41 11 -27 0 -39 -4 -37 -12z"/>
<path d="M154 268 c-3 -4 16 -7 40 -6 25 0 43 4 40 9 -6 10 -74 7 -80 -3z"/>
<path d="M907 273 c-40 -6 -23 -23 23 -23 31 0 38 3 34 15 -4 8 -11 14 -18 14
-6 -1 -23 -4 -39 -6z"/>
<path d="M185 241 l-40 -7 43 -5 c30 -3 42 -1 42 8 0 7 -1 12 -2 12 -2 -1 -21
-5 -43 -8z"/>
<path d="M883 228 c-2 -5 7 -8 21 -8 13 0 31 -3 40 -6 11 -4 16 -1 16 10 0 12
-9 15 -36 13 -20 -1 -38 -5 -41 -9z"/>
<path d="M172 190 c9 -14 19 -18 38 -13 55 13 49 33 -11 33 -36 0 -38 -1 -27
-20z"/>
<path d="M877 204 c-13 -13 -7 -22 20 -27 31 -6 53 1 53 15 0 6 -13 8 -30 6
-16 -2 -31 0 -32 4 -2 5 -7 6 -11 2z"/>
<path d="M333 117 c-13 -5 -23 -14 -23 -19 0 -14 29 -9 38 8 8 15 10 15 15 0
4 -9 2 -16 -3 -16 -6 0 -10 -4 -10 -10 0 -6 10 -5 25 2 28 12 35 31 8 21 -10
-4 -14 -2 -10 4 10 16 -15 22 -40 10z"/>
<path d="M740 123 c0 -11 60 -27 68 -18 8 8 -2 14 -36 21 -19 4 -32 2 -32 -3z"/>
<path d="M700 103 c-8 -2 -21 -7 -29 -9 -11 -4 -9 -9 8 -20 12 -9 29 -13 38
-10 13 5 13 9 2 23 -12 15 -12 16 4 10 47 -19 53 -19 33 -3 -20 16 -30 18 -56
9z m5 -23 c3 -6 -1 -7 -9 -4 -18 7 -21 14 -7 14 6 0 13 -4 16 -10z"/>
<path d="M395 81 c-16 -19 -16 -20 6 -19 34 2 54 19 37 29 -19 12 -23 11 -43
-10z"/>
<path d="M473 83 c-22 -8 -14 -33 10 -32 17 1 18 2 4 6 -9 2 -15 8 -12 13 3 5
12 7 20 3 8 -3 15 -3 15 0 0 8 -24 14 -37 10z"/>
<path d="M614 79 c-5 -8 -3 -9 6 -4 10 6 12 4 7 -8 -5 -13 -1 -17 16 -17 16 0
18 3 9 9 -8 4 -13 12 -12 17 2 14 -17 16 -26 3z"/>
<path d="M530 60 c0 -11 7 -20 15 -20 8 0 15 9 15 20 0 11 -7 20 -15 20 -8 0
-15 -9 -15 -20z"/>
</g>
</svg>
