<svg width="24" height="24" viewBox="0 0 24 24" fill="none" xmlns="http://www.w3.org/2000/svg">
<path d="M18.3458 16.6316H5.62745C5.34799 16.6316 5.10084 16.4503 5.01696 16.1837L2.74997 8.97901C2.48601 8.14012 3.39519 7.41735 4.15294 7.8637L8.03597 10.151C8.18984 10.2416 8.38811 10.1888 8.47647 10.0336L11.0972 5.43039C11.4609 4.79143 12.3785 4.78184 12.7556 5.41305L15.5211 10.0428C15.6114 10.1938 15.8066 10.2437 15.9582 10.1544L19.8389 7.86851C20.5977 7.42156 21.5076 8.14678 21.2411 8.98614L18.9559 16.1852C18.8715 16.451 18.6247 16.6316 18.3458 16.6316Z" fill="url(#paint0_linear_2070_4133)"/>
<path d="M18.4175 19.7896H5.58326C5.32813 19.7896 5.1582 19.6055 5.1582 19.3949V17.6843H18.8424V19.3949C18.8424 19.6053 18.6442 19.7896 18.4175 19.7896Z" fill="url(#paint1_linear_2070_4133)"/>
<defs>
<linearGradient id="paint0_linear_2070_4133" x1="22" y1="10.3158" x2="2" y2="10.3158" gradientUnits="userSpaceOnUse">
<stop stop-color="#1D83BF"/>
<stop offset="1" stop-color="#1BB3D7"/>
</linearGradient>
<linearGradient id="paint1_linear_2070_4133" x1="18.8424" y1="18.737" x2="5.1582" y2="18.737" gradientUnits="userSpaceOnUse">
<stop stop-color="#1D83BF"/>
<stop offset="1" stop-color="#1BB3D7"/>
</linearGradient>
</defs>
</svg>
