<svg width="24" height="24" viewBox="0 0 24 24" fill="none" xmlns="http://www.w3.org/2000/svg">
<path d="M17.8035 21H6.07884C4.91469 21 4 20.1901 4 19.1595V11.1349C4 10.1042 4.91469 9.29443 6.07884 9.29443H17.8035C18.9677 9.29443 19.8824 10.1042 19.8824 11.1349V19.1227C19.8824 20.1533 18.9677 21 17.8035 21ZM6.07884 10.7668C5.82938 10.7668 5.66307 10.9141 5.66307 11.1349V19.1227C5.66307 19.3435 5.82938 19.4908 6.07884 19.4908H17.8035C18.053 19.4908 18.2193 19.3435 18.2193 19.1227V11.1349C18.2193 10.9141 18.053 10.7668 17.8035 10.7668H6.07884Z" fill="url(#paint0_linear_2070_4308)"/>
<path d="M17.0972 9.95706H15.0183V7.56442C15.0183 6.05522 13.6463 4.84049 11.9417 4.84049C10.237 4.84049 8.86497 6.05522 8.86497 7.56442V9.95706H6.78613V7.56442C6.78613 5.06135 9.11444 3 11.9417 3C14.7689 3 17.0972 5.02454 17.0972 7.56442V9.95706Z" fill="url(#paint1_linear_2070_4308)"/>
<path d="M11.9409 17.1595C11.4836 17.1595 11.1094 16.8282 11.1094 16.4233V13.7362C11.1094 13.3313 11.4836 13 11.9409 13C12.3983 13 12.7724 13.3313 12.7724 13.7362V16.4233C12.7724 16.8282 12.3983 17.1595 11.9409 17.1595Z" fill="url(#paint2_linear_2070_4308)"/>
<rect x="5" y="10" width="14" height="10" fill="url(#paint3_linear_2070_4308)" fill-opacity="0.25"/>
<path d="M17.8035 21H6.07884C4.91469 21 4 20.1901 4 19.1595V11.1349C4 10.1042 4.91469 9.29443 6.07884 9.29443H17.8035C18.9677 9.29443 19.8824 10.1042 19.8824 11.1349V19.1227C19.8824 20.1533 18.9677 21 17.8035 21ZM6.07884 10.7668C5.82938 10.7668 5.66307 10.9141 5.66307 11.1349V19.1227C5.66307 19.3435 5.82938 19.4908 6.07884 19.4908H17.8035C18.053 19.4908 18.2193 19.3435 18.2193 19.1227V11.1349C18.2193 10.9141 18.053 10.7668 17.8035 10.7668H6.07884Z" fill="url(#paint4_linear_2070_4308)"/>
<path d="M17.0972 9.95706H15.0183V7.56442C15.0183 6.05522 13.6463 4.84049 11.9417 4.84049C10.237 4.84049 8.86497 6.05522 8.86497 7.56442V9.95706H6.78613V7.56442C6.78613 5.06135 9.11444 3 11.9417 3C14.7689 3 17.0972 5.02454 17.0972 7.56442V9.95706Z" fill="url(#paint5_linear_2070_4308)"/>
<path d="M11.9409 17.1595C11.4836 17.1595 11.1094 16.8282 11.1094 16.4233V13.7362C11.1094 13.3313 11.4836 13 11.9409 13C12.3983 13 12.7724 13.3313 12.7724 13.7362V16.4233C12.7724 16.8282 12.3983 17.1595 11.9409 17.1595Z" fill="url(#paint6_linear_2070_4308)"/>
<defs>
<linearGradient id="paint0_linear_2070_4308" x1="4" y1="14.895" x2="19.9077" y2="14.895" gradientUnits="userSpaceOnUse">
<stop stop-color="#1D83BF"/>
<stop offset="1" stop-color="#2DB8DA"/>
</linearGradient>
<linearGradient id="paint1_linear_2070_4308" x1="6.78613" y1="6.32863" x2="17.1137" y2="6.32863" gradientUnits="userSpaceOnUse">
<stop stop-color="#1D83BF"/>
<stop offset="1" stop-color="#2DB8DA"/>
</linearGradient>
<linearGradient id="paint2_linear_2070_4308" x1="11.1094" y1="14.9901" x2="12.7751" y2="14.9901" gradientUnits="userSpaceOnUse">
<stop stop-color="#1D83BF"/>
<stop offset="1" stop-color="#2DB8DA"/>
</linearGradient>
<linearGradient id="paint3_linear_2070_4308" x1="5" y1="14.7845" x2="19.0224" y2="14.7845" gradientUnits="userSpaceOnUse">
<stop stop-color="#1D83BF"/>
<stop offset="1" stop-color="#2DB8DA"/>
</linearGradient>
<linearGradient id="paint4_linear_2070_4308" x1="4" y1="14.895" x2="19.9077" y2="14.895" gradientUnits="userSpaceOnUse">
<stop stop-color="#1D83BF"/>
<stop offset="1" stop-color="#2DB8DA"/>
</linearGradient>
<linearGradient id="paint5_linear_2070_4308" x1="6.78613" y1="6.32863" x2="17.1137" y2="6.32863" gradientUnits="userSpaceOnUse">
<stop stop-color="#1D83BF"/>
<stop offset="1" stop-color="#2DB8DA"/>
</linearGradient>
<linearGradient id="paint6_linear_2070_4308" x1="11.1094" y1="14.9901" x2="12.7751" y2="14.9901" gradientUnits="userSpaceOnUse">
<stop stop-color="#1D83BF"/>
<stop offset="1" stop-color="#2DB8DA"/>
</linearGradient>
</defs>
</svg>
