<?xml version="1.0" standalone="no"?>
<!DOCTYPE svg PUBLIC "-//W3C//DTD SVG 20010904//EN"
 "http://www.w3.org/TR/2001/REC-SVG-20010904/DTD/svg10.dtd">
<svg version="1.0" xmlns="http://www.w3.org/2000/svg"
 width="300.000000pt" height="236.000000pt" viewBox="0 0 300.000000 236.000000"
 preserveAspectRatio="xMidYMid meet">
<metadata>
Created by potrace 1.10, written by Peter Selinger 2001-2011
</metadata>
<g transform="translate(0.000000,236.000000) scale(0.100000,-0.100000)"
fill="#000000" stroke="none">
<path d="M855 1987 c-27 -7 -60 -19 -72 -25 -13 -7 -23 -10 -23 -7 0 8 -41
-26 -87 -72 -66 -66 -86 -121 -87 -233 -1 -52 2 -107 6 -122 20 -80 115 -188
187 -213 48 -16 59 -32 28 -44 -14 -5 -30 -18 -36 -28 -6 -10 -11 -15 -11 -11
0 9 -10 1 -111 -85 -38 -32 -69 -66 -69 -76 0 -25 46 -64 114 -96 77 -38 128
-47 265 -50 115 -3 127 -1 221 43 72 34 135 110 163 197 15 45 23 167 14 205
-10 43 -50 114 -88 155 -39 42 -108 88 -134 90 -26 1 -10 33 28 57 23 15 70
52 105 82 34 30 70 60 79 65 14 8 16 15 8 38 -13 37 -87 85 -172 113 -84 27
-253 36 -328 17z m317 -46 c65 -21 159 -76 165 -97 6 -18 -28 -26 -46 -10 -80
70 -270 112 -396 86 -105 -22 -172 -70 -218 -155 -18 -32 -22 -56 -21 -125 0
-72 4 -93 27 -136 50 -97 138 -144 269 -144 100 0 128 -17 128 -82 0 -71 -68
-98 -193 -78 -75 12 -97 19 -97 30 0 15 23 17 112 12 110 -6 138 1 138 33 0
34 -21 42 -125 47 -105 5 -171 33 -225 94 -97 111 -107 295 -24 416 35 49 116
104 184 123 76 21 233 14 322 -14z m-87 -62 c65 -11 188 -67 187 -84 -1 -22
-31 -29 -50 -12 -38 35 -132 59 -232 61 -83 1 -102 -3 -145 -24 -116 -58 -150
-213 -69 -310 43 -50 79 -63 191 -70 110 -6 135 -17 177 -73 29 -39 29 -135 0
-174 -67 -90 -221 -108 -373 -42 -47 20 -51 24 -37 37 14 14 19 14 51 -1 55
-26 170 -40 231 -27 99 21 135 98 88 192 -17 33 -64 48 -153 48 -115 0 -189
39 -234 123 -31 59 -31 175 1 234 56 107 193 153 367 122z m40 -93 c65 -20 94
-40 78 -56 -8 -9 -25 -7 -69 9 -62 24 -199 31 -244 13 -47 -19 -74 -58 -74
-110 0 -90 44 -122 167 -122 86 0 135 -14 182 -52 47 -40 76 -98 82 -170 10
-106 -42 -195 -139 -239 -46 -21 -68 -24 -158 -23 -112 1 -168 15 -249 61 -37
22 -41 27 -29 39 12 12 22 10 74 -15 107 -54 256 -63 349 -22 79 35 123 120
110 210 -18 119 -90 171 -237 171 -132 0 -192 51 -193 161 0 43 5 65 21 85 28
38 65 64 105 75 45 11 162 3 224 -15z m-12 -78 c38 -11 47 -23 25 -31 -7 -2
-52 -2 -100 1 -115 6 -138 0 -138 -38 0 -35 7 -37 130 -43 67 -3 96 -9 136
-30 99 -51 154 -142 162 -268 10 -170 -80 -292 -248 -335 -84 -21 -230 -14
-315 16 -71 25 -165 79 -165 96 0 25 32 23 72 -6 68 -50 166 -75 288 -75 91 1
112 4 160 26 112 52 176 158 167 274 -8 114 -67 205 -156 243 -20 8 -83 18
-140 22 -117 7 -131 16 -131 79 0 47 9 59 56 77 42 15 129 12 197 -8z"/>
<path d="M1780 1984 c-144 -38 -287 -149 -341 -264 -63 -132 -62 -130 -65
-262 -1 -71 2 -130 7 -134 5 -3 9 -11 9 -19 0 -29 61 -144 105 -197 62 -75
181 -153 254 -165 14 -2 32 -8 42 -14 34 -18 199 -11 274 12 40 12 109 23 160
25 50 3 95 5 100 5 6 1 18 -2 27 -6 10 -4 24 1 37 14 20 20 21 31 21 254 0
194 -3 236 -16 255 -16 23 -43 29 -60 12 -8 -8 -19 -7 -36 1 -18 8 -31 8 -44
1 -12 -7 -25 -7 -40 0 -14 7 -28 7 -41 0 -12 -7 -25 -7 -34 -1 -21 13 -33 11
-57 -11 -19 -18 -22 -31 -22 -103 0 -81 0 -82 -31 -99 -42 -25 -150 -24 -205
1 -39 18 -84 67 -92 101 -15 57 -13 110 7 147 58 114 195 145 297 67 24 -19
52 -34 61 -34 9 0 60 29 112 64 53 35 106 68 117 74 44 23 37 65 -23 127 -66
71 -159 125 -258 151 -65 18 -195 17 -265 -2z m242 -25 c91 -19 177 -67 252
-142 62 -61 67 -69 51 -80 -15 -12 -25 -5 -80 50 -148 148 -347 181 -539 90
-182 -86 -289 -291 -257 -489 39 -246 257 -417 501 -394 99 9 140 23 140 48 0
15 -4 18 -17 13 -10 -4 -51 -12 -91 -18 -185 -28 -371 63 -451 221 -125 248 8
548 274 617 151 39 299 -3 414 -118 55 -55 59 -62 35 -71 -10 -4 -32 11 -64
43 -90 90 -225 135 -338 112 -262 -52 -398 -315 -288 -556 63 -137 236 -231
391 -210 97 12 135 26 135 47 0 16 -5 19 -22 14 -161 -46 -296 -22 -398 70
-51 47 -85 111 -100 192 -28 157 50 304 200 376 56 27 76 31 145 30 98 0 165
-28 240 -97 48 -45 49 -47 31 -62 -18 -14 -22 -12 -52 24 -20 22 -58 49 -94
65 -156 70 -328 8 -405 -148 -33 -65 -35 -170 -5 -250 24 -63 87 -127 158
-159 89 -39 293 -19 300 31 3 21 3 21 -40 6 -60 -22 -192 -22 -242 0 -105 45
-156 124 -156 241 0 118 53 201 160 248 54 25 148 26 201 4 39 -16 119 -83
119 -98 0 -25 -33 -18 -69 14 -102 92 -262 71 -338 -45 -25 -37 -28 -51 -28
-124 0 -75 3 -86 30 -125 17 -23 48 -52 70 -63 54 -28 164 -33 239 -12 l56 17
0 104 c0 102 1 105 23 105 l22 0 0 -245 0 -246 -50 -15 c-27 -9 -90 -18 -140
-21 -160 -10 -287 37 -396 146 -239 238 -182 640 114 805 110 62 235 81 359
55z m198 -724 l0 -245 -25 0 -25 0 0 245 0 245 25 0 25 0 0 -245z m80 0 l0
-245 -22 0 -23 0 0 245 0 245 23 0 22 0 0 -245z m80 0 l0 -245 -22 0 -23 0 0
245 0 245 23 0 22 0 0 -245z"/>
<path d="M625 892 c-16 -16 -23 -32 -19 -41 3 -9 9 -23 12 -31 5 -12 1 -12
-18 2 -60 43 -79 49 -118 38 -39 -10 -78 -43 -83 -70 -1 -8 1 -34 5 -58 5 -28
4 -47 -3 -56 -30 -36 45 -104 109 -99 19 2 62 5 95 8 78 7 106 6 187 -1 59 -5
71 -3 94 15 l27 21 22 -20 c15 -14 35 -20 66 -20 24 1 91 0 147 0 63 -1 109 3
117 10 10 8 21 8 42 -3 31 -16 60 -10 82 17 11 13 12 25 4 50 -6 20 -7 40 -2
47 19 30 10 84 -20 119 l-29 35 -188 2 c-175 1 -191 0 -217 -19 l-29 -20 -22
21 c-26 25 -58 27 -76 6 -18 -22 -25 -19 -27 11 -2 39 -25 55 -81 59 -44 3
-55 -1 -77 -23z m53 -48 c-19 -19 -38 -11 -38 16 0 24 21 31 40 14 12 -12 12
-16 -2 -30z m72 16 c0 -27 -19 -35 -38 -17 -12 13 -13 19 -3 31 16 19 41 10
41 -14z m-194 -54 l28 -23 -22 -12 c-17 -9 -26 -9 -42 1 -15 9 -22 10 -31 1
-9 -9 1 -17 37 -35 41 -19 49 -28 52 -53 4 -42 -17 -65 -63 -72 -31 -4 -46 0
-67 17 -34 26 -35 34 -5 47 17 8 25 7 36 -4 14 -16 42 -14 48 3 2 7 -11 17
-28 23 -68 24 -89 71 -49 111 27 27 73 25 106 -4z m314 -22 l0 -40 43 2 c41 2
42 3 42 38 0 19 3 36 8 36 50 1 47 7 47 -105 l0 -105 -31 0 c-31 0 -32 0 -27
45 l6 45 -44 0 -44 0 0 -45 c0 -41 -2 -45 -25 -45 l-25 0 0 108 0 107 25 0
c23 0 25 -4 25 -41z m-110 -61 c19 -53 37 -101 38 -105 2 -4 -10 -8 -26 -8
-21 0 -31 6 -35 20 -4 15 -14 20 -42 20 -28 0 -38 -5 -42 -20 -4 -14 -14 -20
-35 -20 -16 0 -28 4 -26 8 2 4 19 52 38 105 33 94 35 97 65 97 30 0 32 -3 65
-97z m420 71 c0 -24 -3 -25 -42 -22 -33 2 -43 -1 -43 -12 0 -11 10 -14 38 -12
34 3 37 1 37 -23 0 -23 -4 -25 -40 -25 -33 0 -40 -3 -40 -20 0 -17 7 -20 45
-20 41 0 45 -2 45 -25 0 -24 -2 -25 -70 -25 l-70 0 0 105 0 105 70 0 c68 0 70
-1 70 -26z m163 9 c25 -29 26 -73 1 -97 -14 -15 -14 -18 4 -43 35 -52 35 -53
-1 -53 -28 0 -36 5 -50 35 -9 19 -24 35 -32 35 -13 0 -15 -7 -9 -35 6 -34 5
-35 -25 -35 l-31 0 0 105 0 105 63 0 c48 0 68 -4 80 -17z"/>
<path d="M686 735 c-10 -27 -7 -42 9 -42 16 0 20 24 6 45 -7 11 -10 10 -15 -3z"/>
<path d="M1257 773 c-4 -3 -7 -15 -7 -25 0 -13 8 -18 29 -18 31 0 46 21 28 39
-12 12 -40 15 -50 4z"/>
<path d="M2310 862 c-19 -2 -40 -8 -47 -14 -8 -7 -23 -6 -45 1 -47 15 -198 12
-222 -5 -17 -12 -22 -11 -38 2 -12 12 -26 14 -45 10 -32 -8 -36 -8 -126 0 -57
5 -71 4 -88 -12 -18 -16 -21 -17 -55 -1 -72 35 -153 12 -194 -55 -41 -68 -15
-155 59 -196 48 -27 86 -28 131 -3 33 17 37 18 63 3 22 -13 33 -14 57 -5 24 9
36 9 56 -2 20 -10 34 -11 57 -3 22 8 39 8 64 -1 34 -13 83 -7 115 13 13 8 21
7 30 -2 24 -24 65 -14 94 23 27 35 54 46 54 22 0 -22 45 -57 73 -57 18 0 34
10 49 30 27 38 35 38 68 -1 24 -30 31 -32 89 -32 90 0 96 8 96 141 1 132 -6
142 -100 142 -33 0 -66 -5 -71 -10 -7 -7 -23 -6 -50 2 -21 8 -55 12 -74 10z
m-668 -59 c17 -15 17 -18 2 -34 -13 -15 -19 -15 -41 -4 -33 17 -65 5 -78 -29
-16 -45 21 -84 68 -72 35 8 35 25 0 23 -22 -2 -29 3 -31 21 -3 21 0 22 57 22
59 0 61 -1 61 -26 0 -97 -150 -130 -196 -43 -19 37 -18 89 2 118 35 49 115 62
156 24z m214 -8 c19 -25 18 -64 -2 -86 -15 -17 -15 -21 5 -52 27 -44 27 -47
-7 -47 -22 0 -32 7 -45 35 -9 19 -23 35 -32 35 -10 0 -15 -10 -15 -35 0 -31
-3 -35 -25 -35 l-25 0 0 108 0 107 66 -5 c49 -4 70 -11 80 -25z m96 -54 c3
-74 4 -76 28 -76 24 0 25 3 30 80 5 77 6 80 29 80 24 0 24 -2 22 -85 -1 -77
-4 -87 -27 -107 -29 -27 -79 -30 -109 -7 -16 12 -21 31 -26 102 -3 48 -4 90
-2 93 1 4 14 4 27 2 24 -5 25 -9 28 -82z m451 62 c23 -22 22 -78 -3 -103 -11
-11 -33 -20 -51 -20 -28 0 -30 -2 -27 -32 3 -29 0 -33 -24 -36 l-28 -3 0 108
0 108 57 -3 c34 -2 65 -10 76 -19z m177 -9 c0 -24 -3 -25 -42 -22 -33 2 -43
-1 -43 -12 0 -11 9 -14 38 -12 34 3 37 1 37 -22 0 -24 -4 -26 -40 -26 -33 0
-40 -3 -40 -20 0 -17 7 -20 45 -20 41 0 45 -2 45 -25 0 -24 -2 -25 -70 -25
l-70 0 0 105 0 104 63 3 c75 4 77 3 77 -28z m-355 6 c42 -47 8 -120 -55 -120
-27 0 -28 -2 -23 -35 5 -34 5 -35 -26 -35 l-31 0 0 105 0 105 58 0 c46 0 63
-4 77 -20z"/>
<path d="M1760 755 c0 -21 5 -25 30 -25 23 0 30 5 30 19 0 19 -18 31 -46 31
-8 0 -14 -10 -14 -25z"/>
<path d="M2320 755 c0 -20 5 -25 24 -25 27 0 40 22 23 39 -21 21 -47 13 -47
-14z"/>
<path d="M2147 773 c-4 -3 -7 -15 -7 -25 0 -20 44 -26 55 -8 14 22 -30 52 -48
33z"/>
</g>
</svg>
