<svg width="112" height="50" viewBox="0 0 112 50" fill="none" xmlns="http://www.w3.org/2000/svg">
<path fill-rule="evenodd" clip-rule="evenodd" d="M19.2457 1.96333V48.0326C19.2461 48.3888 19.1498 48.7384 18.9668 49.0441C18.7839 49.3498 18.5214 49.6 18.2072 49.7679C17.8931 49.9359 17.5392 50.0153 17.1834 49.9976C16.8276 49.9799 16.4833 49.8658 16.1873 49.6676L1.37479 38.0592C1.10608 37.8793 0.885746 37.636 0.733194 37.3509C0.580641 37.0658 0.50056 36.7475 0.5 36.4241V13.7488C0.500158 13.4279 0.578661 13.1118 0.728691 12.8281C0.878721 12.5443 1.09574 12.3015 1.36091 12.1207L16.1735 0.338709C16.4691 0.138443 16.8136 0.0223694 17.1702 0.00292187C17.5267 -0.0165256 17.8818 0.0613854 18.1975 0.22831C18.5132 0.395235 18.7775 0.644884 18.9621 0.950518C19.1468 1.25615 19.2448 1.60626 19.2457 1.96333Z" fill="white"/>
<path opacity="0.25" d="M36.6016 13.5232V36.7817" stroke="url(#paint0_linear_3332_33932)" stroke-width="2.22356" stroke-linecap="round" stroke-linejoin="round"/>
<path opacity="0.75" d="M24.2188 5.19189V44.7661" stroke="url(#paint1_linear_3332_33932)" stroke-width="2.22356" stroke-miterlimit="10" stroke-linecap="round"/>
<path opacity="0.5" d="M30.418 9.35742V40.6002" stroke="url(#paint2_linear_3332_33932)" stroke-width="2.22356" stroke-miterlimit="10" stroke-linecap="round"/>
<path d="M51.7524 12.5859C51.9091 12.5857 52.0639 12.6209 52.2051 12.6888C52.3464 12.7567 52.4705 12.8557 52.5682 12.9782L58.1225 19.5114C58.2623 19.668 58.339 19.8709 58.3377 20.0807C58.3404 20.2127 58.3134 20.3436 58.2587 20.4638C58.204 20.584 58.1231 20.6903 58.0218 20.775C57.8333 20.9516 57.5858 21.0518 57.3275 21.0562C57.1684 21.0567 57.0114 21.02 56.8692 20.9488C56.7269 20.8777 56.6033 20.7742 56.5082 20.6466L50.954 14.1134C50.8777 14.026 50.8196 13.9243 50.783 13.8143C50.7464 13.7042 50.732 13.588 50.7408 13.4724C50.7495 13.3567 50.7811 13.244 50.8338 13.1407C50.8865 13.0373 50.9592 12.9455 51.0477 12.8706C51.2384 12.6903 51.49 12.5887 51.7524 12.5859Z" fill="white" stroke="white" stroke-width="0.416917" stroke-miterlimit="10"/>
<path d="M58.0441 12.8533C58.145 12.9376 58.2251 13.0442 58.2781 13.1646C58.3311 13.2851 58.3556 13.4161 58.3496 13.5475C58.351 13.7564 58.2742 13.9583 58.1343 14.1134L52.58 20.6466C52.4858 20.7741 52.3628 20.8777 52.2211 20.9488C52.0793 21.02 51.9228 21.0568 51.7643 21.0562C51.506 21.0519 51.2585 20.9516 51.07 20.775C50.9687 20.6903 50.8878 20.584 50.8331 20.4638C50.7784 20.3437 50.7514 20.2128 50.7541 20.0808C50.7544 19.8712 50.8309 19.6688 50.9693 19.5114L56.5236 12.9782C56.6121 12.8652 56.7231 12.7717 56.8495 12.7036C56.976 12.6355 57.1151 12.5943 57.2582 12.5826C57.4013 12.5708 57.5454 12.5888 57.6812 12.6354C57.817 12.682 57.9417 12.7562 58.0475 12.8533H58.0441Z" fill="white" stroke="white" stroke-width="0.416917" stroke-miterlimit="10"/>
<path d="M62.4336 12.586C62.6376 12.5844 62.8386 12.6358 63.0167 12.7353C63.1946 12.8376 63.3347 12.9947 63.416 13.1831L65.846 18.4736L65.4988 18.6298L67.9982 13.2005C68.0584 13.0171 68.1775 12.8588 68.337 12.7502C68.4965 12.6416 68.6874 12.5888 68.88 12.5999C69.1293 12.5898 69.3725 12.6783 69.5569 12.8464C69.6401 12.9231 69.706 13.0166 69.7503 13.1208C69.7946 13.2249 69.8162 13.3373 69.8138 13.4504C69.8126 13.5308 69.7985 13.6105 69.7721 13.6865C69.7444 13.7698 69.7131 13.8496 69.6819 13.9225L66.5576 20.4106C66.4901 20.5806 66.3749 20.7274 66.2258 20.8333C66.0768 20.9393 65.9002 20.9998 65.7175 21.0077C65.5083 21.0404 65.2942 21.0012 65.11 20.8966C64.9129 20.7884 64.7577 20.6173 64.6691 20.4106L61.5518 13.9225C61.531 13.8704 61.5032 13.8045 61.4755 13.7177C61.4459 13.621 61.4318 13.5203 61.4338 13.4192C61.4463 13.2051 61.5423 13.0044 61.7011 12.8603C61.7968 12.7652 61.9115 12.6917 62.0378 12.6444C62.1641 12.5971 62.299 12.5772 62.4336 12.586Z" fill="white" stroke="white" stroke-width="0.416917" stroke-miterlimit="10"/>
<path d="M80.6663 12.4262C80.9306 12.4175 81.1876 12.5136 81.3814 12.6935C81.4756 12.7823 81.5496 12.8902 81.5987 13.0099C81.6478 13.1296 81.6708 13.2584 81.6661 13.3877V20.0459C81.6706 20.1752 81.6475 20.304 81.5984 20.4237C81.5493 20.5434 81.4754 20.6513 81.3814 20.7402C81.2868 20.8316 81.1747 20.9031 81.0518 20.9502C80.929 20.9973 80.7978 21.0192 80.6663 21.0145C80.5343 21.0188 80.4028 20.9968 80.2794 20.9497C80.156 20.9027 80.0433 20.8314 79.9477 20.7402C79.855 20.6506 79.782 20.5424 79.7336 20.4229C79.6852 20.3033 79.6623 20.1749 79.6666 20.0459V19.2753L80.0311 19.4176C80.0097 19.604 79.928 19.7783 79.7985 19.914C79.6149 20.1288 79.4022 20.3169 79.1667 20.4729C78.8749 20.6809 78.5561 20.8479 78.219 20.9693C77.8414 21.104 77.443 21.171 77.0422 21.1672C76.3092 21.1764 75.588 20.9817 74.9593 20.6048C74.3375 20.2336 73.8277 19.701 73.484 19.0635C73.1134 18.3688 72.927 17.5908 72.9424 16.8036C72.9259 16.0119 73.1123 15.2291 73.484 14.5298C73.8251 13.8953 74.3282 13.3623 74.942 12.9851C75.5547 12.6128 76.2593 12.4192 76.9762 12.4262C77.423 12.4217 77.8676 12.4909 78.2919 12.631C78.6617 12.7549 79.0123 12.9302 79.3333 13.1517C79.597 13.3266 79.8314 13.5422 80.0276 13.7904C80.1616 13.9422 80.2463 14.131 80.2706 14.332L79.67 14.5368V13.3877C79.6654 13.2587 79.688 13.1302 79.7365 13.0106C79.7849 12.8909 79.8581 12.7829 79.9512 12.6935C80.047 12.6041 80.1594 12.5345 80.2822 12.4886C80.4049 12.4427 80.5354 12.4215 80.6663 12.4262ZM77.2991 19.4315C77.7422 19.4435 78.1794 19.3282 78.559 19.0993C78.9386 18.8704 79.2447 18.5376 79.4409 18.1401C79.6443 17.7202 79.75 17.2598 79.75 16.7932C79.75 16.3267 79.6443 15.8662 79.4409 15.4463C79.2447 15.0489 78.9386 14.716 78.559 14.4871C78.1794 14.2582 77.7422 14.143 77.2991 14.1549C76.8523 14.148 76.4128 14.2684 76.032 14.5021C75.6662 14.7337 75.3699 15.0599 75.1745 15.4463C74.9711 15.8662 74.8655 16.3267 74.8655 16.7932C74.8655 17.2598 74.9711 17.7202 75.1745 18.1401C75.3699 18.5265 75.6662 18.8528 76.032 19.0843C76.4128 19.318 76.8523 19.4384 77.2991 19.4315Z" fill="white" stroke="white" stroke-width="0.416917" stroke-miterlimit="10"/>
<path d="M87.9931 20.0457C87.9971 20.1756 87.9732 20.3048 87.9229 20.4246C87.8725 20.5444 87.797 20.652 87.7015 20.74C87.5056 20.924 87.2446 21.0226 86.976 21.0143C86.8479 21.0167 86.7205 20.9938 86.6013 20.9467C86.4822 20.8996 86.3735 20.8294 86.2817 20.74C86.1889 20.6504 86.116 20.5422 86.0675 20.4227C86.0191 20.3031 85.9963 20.1747 86.0005 20.0457V10.3258C85.9965 10.1959 86.0204 10.0667 86.0708 9.94688C86.1211 9.82709 86.1966 9.71952 86.2921 9.63147C86.389 9.54021 86.503 9.469 86.6275 9.42194C86.752 9.37488 86.8846 9.35288 87.0176 9.35723C87.1458 9.35415 87.2733 9.37684 87.3926 9.42395C87.5118 9.47106 87.6204 9.54163 87.7119 9.63147C87.8024 9.72248 87.8734 9.83099 87.9206 9.95036C87.9677 10.0697 87.99 10.1975 87.9862 10.3258L87.9931 20.0457Z" fill="white" stroke="white" stroke-width="0.416917" stroke-miterlimit="10"/>
<path d="M98.8526 12.586C98.9846 12.5813 99.1162 12.6031 99.2397 12.6502C99.3631 12.6973 99.4759 12.7688 99.5712 12.8603C99.6639 12.9499 99.7369 13.0581 99.7853 13.1776C99.8337 13.2972 99.8566 13.4256 99.8523 13.5546V17.5432C99.878 18.0279 99.8041 18.5126 99.6351 18.9676C99.4662 19.4226 99.2057 19.8381 98.8699 20.1885C98.215 20.8411 97.2707 21.1674 96.0372 21.1674C94.8037 21.1674 93.863 20.8411 93.215 20.1885C92.8809 19.8371 92.6221 19.4213 92.4544 18.9665C92.2866 18.5116 92.2135 18.0273 92.2395 17.5432V13.5303C92.2353 13.4013 92.2581 13.2729 92.3065 13.1533C92.355 13.0338 92.4279 12.9256 92.5207 12.836C92.7176 12.6591 92.9729 12.5613 93.2375 12.5613C93.5022 12.5613 93.7575 12.6591 93.9544 12.836C94.0483 12.9249 94.1223 13.0328 94.1713 13.1525C94.2204 13.2722 94.2435 13.401 94.239 13.5303V17.5432C94.1967 18.059 94.3574 18.5709 94.6869 18.97C94.8688 19.1347 95.0823 19.2606 95.3145 19.3399C95.5467 19.4193 95.7926 19.4505 96.0372 19.4317C96.2848 19.4508 96.5338 19.4195 96.7689 19.3395C97.004 19.2596 97.2204 19.1327 97.405 18.9665C97.7345 18.5675 97.8952 18.0555 97.8528 17.5398V13.5303C97.8483 13.401 97.8714 13.2722 97.9205 13.1525C97.9696 13.0328 98.0435 12.9249 98.1375 12.836C98.2341 12.7489 98.3471 12.682 98.4699 12.639C98.5926 12.5961 98.7227 12.5781 98.8526 12.586Z" fill="white" stroke="white" stroke-width="0.416917" stroke-miterlimit="10"/>
<path d="M107.873 21.1671C107.02 21.1883 106.175 20.9949 105.415 20.6047C104.749 20.2593 104.194 19.7321 103.815 19.0842C103.438 18.4229 103.245 17.6724 103.256 16.9111C103.229 16.0605 103.44 15.2191 103.864 14.4811C104.247 13.8354 104.797 13.3053 105.457 12.9468C106.094 12.5934 106.811 12.4083 107.54 12.4087C108.094 12.4106 108.642 12.5289 109.147 12.7558C109.646 12.9706 110.101 13.2767 110.487 13.6584C110.876 14.0417 111.19 14.4937 111.414 14.9914C111.643 15.4951 111.761 16.042 111.761 16.5952C111.759 16.715 111.729 16.8326 111.674 16.9391C111.62 17.0456 111.541 17.1382 111.445 17.2097C111.247 17.3647 111.002 17.4479 110.751 17.4457H104.374L103.874 15.8732H109.987L109.64 16.1856V15.7656C109.617 15.4618 109.495 15.1739 109.293 14.9463C109.084 14.7003 108.823 14.5035 108.529 14.37C108.223 14.23 107.89 14.1578 107.554 14.1583C107.238 14.1552 106.923 14.1985 106.62 14.2867C106.34 14.3661 106.083 14.5113 105.87 14.7102C105.643 14.9345 105.472 15.2093 105.37 15.5121C105.237 15.9244 105.175 16.3564 105.186 16.7896C105.171 17.2958 105.301 17.7959 105.561 18.2303C105.798 18.6103 106.132 18.9196 106.53 19.1259C106.917 19.33 107.349 19.4361 107.786 19.4348C108.117 19.444 108.447 19.4114 108.769 19.3376C108.976 19.2898 109.176 19.2139 109.362 19.112C109.511 19.0217 109.646 18.9454 109.769 18.8829C109.945 18.7947 110.138 18.7461 110.334 18.7406C110.447 18.7374 110.559 18.7566 110.664 18.7971C110.769 18.8377 110.864 18.8987 110.945 18.9766C111.021 19.047 111.082 19.1324 111.123 19.2274C111.164 19.3224 111.185 19.425 111.185 19.5286C111.175 19.6849 111.127 19.8366 111.047 19.9708C110.966 20.1049 110.853 20.2176 110.72 20.2992C110.353 20.571 109.942 20.7766 109.505 20.9067C108.979 21.0815 108.428 21.1694 107.873 21.1671Z" fill="white" stroke="white" stroke-width="0.416917" stroke-miterlimit="10"/>
<path d="M51.3204 35.8094C51.2369 35.6986 51.1929 35.5629 51.1954 35.4241C51.1985 35.3593 51.2196 35.2967 51.2564 35.2433C51.2932 35.19 51.3443 35.148 51.4037 35.1221C51.4453 35.0846 51.4942 35.0562 51.5475 35.0389C51.6007 35.0216 51.657 35.0156 51.7127 35.0214C51.8362 35.0381 51.9503 35.097 52.0355 35.1881C52.3334 35.5679 52.7055 35.8833 53.129 36.1149C53.5994 36.3579 54.1238 36.4773 54.653 36.4621C54.9673 36.4613 55.2793 36.4085 55.5763 36.3058C55.8654 36.2131 56.1267 36.0496 56.3366 35.8303C56.5388 35.6091 56.646 35.3174 56.6351 35.018C56.6417 34.8695 56.6186 34.7213 56.5674 34.5818C56.5161 34.4424 56.4377 34.3145 56.3366 34.2056C56.1143 33.9902 55.8494 33.8235 55.559 33.7162C55.2202 33.5842 54.8721 33.4775 54.5176 33.3968C54.1392 33.2961 53.7782 33.185 53.4275 33.0497C53.0946 32.9328 52.7783 32.7729 52.4868 32.5741C52.2181 32.3945 51.9928 32.1573 51.8272 31.8798C51.6585 31.5742 51.5746 31.229 51.5842 30.88C51.5766 30.4454 51.708 30.0198 51.9591 29.665C52.2255 29.3025 52.5855 29.0193 53.0006 28.8458C53.4694 28.6437 53.9758 28.5431 54.4863 28.5507C54.7949 28.5525 55.1022 28.5886 55.4028 28.6583C55.7329 28.7306 56.0518 28.8474 56.3505 29.0055C56.669 29.1741 56.9519 29.4028 57.1836 29.6789C57.2318 29.7228 57.27 29.7765 57.2957 29.8364C57.3214 29.8962 57.3341 29.9609 57.3329 30.026C57.3302 30.0922 57.3141 30.1571 57.2854 30.2168C57.2568 30.2765 57.2162 30.3297 57.1663 30.3732C57.0789 30.4397 56.9702 30.4718 56.8608 30.4634C56.8051 30.4623 56.7503 30.4494 56.7 30.4254C56.6497 30.4015 56.6052 30.3671 56.5692 30.3246C56.3161 30.0392 56.0015 29.8149 55.6493 29.6685C55.2728 29.5184 54.8708 29.4429 54.4655 29.4463C54.1571 29.4433 53.8506 29.4938 53.5595 29.5956C53.2927 29.6865 53.0536 29.8443 52.8652 30.0538C52.6679 30.2798 52.5658 30.5734 52.5805 30.8731C52.5927 31.1651 52.717 31.4411 52.9277 31.6437C53.1659 31.86 53.4442 32.0275 53.7469 32.1367C54.1196 32.2737 54.4998 32.3896 54.8855 32.4838C55.2385 32.5676 55.5862 32.6719 55.927 32.7962C56.2339 32.9059 56.5247 33.0566 56.7913 33.2441C57.0418 33.4267 57.2472 33.6642 57.3919 33.9383C57.5542 34.2607 57.6319 34.6191 57.6175 34.9798C57.6284 35.4299 57.4837 35.8701 57.2079 36.226C56.9225 36.5865 56.5463 36.8644 56.1179 37.0314C55.6349 37.2211 55.1197 37.3154 54.6009 37.3091C54.0052 37.3076 53.4156 37.1896 52.8652 36.9619C52.2589 36.7184 51.7266 36.3212 51.3204 35.8094Z" fill="white"/>
<path d="M61.0684 28.8046H64.9495C65.014 28.8011 65.0784 28.8117 65.1384 28.8357C65.1983 28.8597 65.2523 28.8965 65.2966 28.9434C65.3419 28.9889 65.3773 29.0431 65.4006 29.1029C65.4239 29.1626 65.4346 29.2265 65.432 29.2906C65.4359 29.3548 65.4259 29.4191 65.4025 29.479C65.3791 29.539 65.343 29.5931 65.2966 29.6377C65.2511 29.6825 65.1967 29.717 65.1368 29.7392C65.077 29.7613 65.0131 29.7705 64.9495 29.7662H61.0684C61.0042 29.7679 60.9402 29.7564 60.8805 29.7326C60.8209 29.7087 60.7667 29.6729 60.7213 29.6273C60.6749 29.5826 60.6385 29.5285 60.6146 29.4687C60.5906 29.4088 60.5797 29.3446 60.5825 29.2802C60.5809 29.219 60.5924 29.1582 60.6164 29.1019C60.6404 29.0456 60.6761 28.9951 60.7213 28.9539C60.7665 28.9074 60.8204 28.8703 60.88 28.8446C60.9396 28.819 61.0036 28.8054 61.0684 28.8046ZM62.7833 26.4926C62.8481 26.4918 62.9123 26.5043 62.9721 26.5294C63.0318 26.5545 63.0857 26.5916 63.1305 26.6384C63.2218 26.7309 63.273 26.8556 63.2728 26.9856V35.2163C63.2581 35.4544 63.301 35.6925 63.3978 35.9106C63.4645 36.0489 63.5811 36.1568 63.7241 36.2126C63.8518 36.2602 63.987 36.2849 64.1233 36.2855C64.2058 36.286 64.2879 36.2731 64.3663 36.2473C64.4428 36.2185 64.5241 36.2044 64.6058 36.2057C64.6548 36.2053 64.7034 36.2153 64.7483 36.235C64.7931 36.2548 64.8333 36.2838 64.8662 36.3202C64.9385 36.4011 64.9771 36.5068 64.9738 36.6153C64.9688 36.6978 64.9413 36.7774 64.8941 36.8454C64.847 36.9133 64.7821 36.967 64.7065 37.0006C64.5138 37.1087 64.2955 37.1627 64.0747 37.1568C63.974 37.1568 63.8247 37.1568 63.6234 37.1325C63.408 37.1114 63.1984 37.0502 63.0055 36.952C62.7755 36.8276 62.5898 36.6347 62.4744 36.4001C62.3091 36.0467 62.2339 35.6579 62.2557 35.2684V26.9717C62.256 26.9064 62.2697 26.8419 62.2959 26.7822C62.3222 26.7225 62.3605 26.6688 62.4084 26.6245C62.4574 26.5756 62.516 26.5374 62.5806 26.5123C62.6451 26.4872 62.7141 26.4757 62.7833 26.4787V26.4926Z" fill="white"/>
<path d="M76.251 28.7592C76.3156 28.7592 76.3796 28.7721 76.4392 28.7971C76.4988 28.8222 76.5529 28.8588 76.5981 28.905C76.6885 28.9981 76.7395 29.1224 76.7404 29.2522V36.6324C76.7388 36.7322 76.7076 36.8293 76.651 36.9115C76.5943 36.9937 76.5146 37.0574 76.4219 37.0945C76.3292 37.1315 76.2276 37.1404 76.1299 37.12C76.0322 37.0995 75.9426 37.0507 75.8726 36.9795C75.7844 36.8858 75.737 36.761 75.7407 36.6324V34.7058L76.0219 34.5912C76.0132 34.9165 75.925 35.2347 75.765 35.5181C75.5866 35.8511 75.3517 36.1507 75.0707 36.4033C74.7616 36.6773 74.4099 36.8989 74.0293 37.0594C73.6145 37.2308 73.1694 37.317 72.7205 37.3128C72.0044 37.3243 71.3006 37.1251 70.6967 36.74C70.101 36.3485 69.6214 35.8042 69.3081 35.164C68.9605 34.467 68.7855 33.6967 68.7978 32.918C68.7822 32.1348 68.9598 31.3598 69.3151 30.6615C69.635 30.0378 70.114 29.5097 70.7036 29.1307C71.1973 28.8281 71.7537 28.6426 72.3302 28.5884C72.9067 28.5342 73.4879 28.6129 74.0293 28.8182C74.42 28.9727 74.7798 29.1961 75.0915 29.4778C75.3967 29.7545 75.6465 30.0867 75.8275 30.4567C76.0017 30.8063 76.0943 31.1909 76.0982 31.5815L75.7511 31.335V29.2522C75.7499 29.124 75.797 29 75.883 28.905C75.9301 28.8555 75.9874 28.8169 76.051 28.7917C76.1145 28.7665 76.1827 28.7554 76.251 28.7592ZM72.7796 36.3963C73.3344 36.4069 73.8797 36.2509 74.3451 35.9485C74.8157 35.6412 75.1937 35.2116 75.4387 34.7058C75.7051 34.1504 75.8393 33.5408 75.8309 32.9249C75.8387 32.3235 75.7043 31.7288 75.4387 31.1892C75.1953 30.6914 74.8239 30.2673 74.3625 29.9603C73.8975 29.6567 73.3522 29.4995 72.7969 29.509C72.2466 29.5022 71.7058 29.6528 71.2382 29.943C70.7739 30.2395 70.3994 30.6572 70.1552 31.151C69.887 31.702 69.7537 32.3088 69.7663 32.9214C69.7569 33.5371 69.89 34.1466 70.1552 34.7023C70.397 35.2058 70.7684 35.6359 71.2313 35.9485C71.6943 36.2433 72.2343 36.3943 72.783 36.3824L72.7796 36.3963Z" fill="white"/>
<path d="M80.8139 28.8046H84.695C84.7594 28.8018 84.8236 28.8128 84.8835 28.8367C84.9433 28.8606 84.9974 28.897 85.0421 28.9435C85.0869 28.989 85.1218 29.0434 85.1445 29.1032C85.1672 29.1629 85.1773 29.2268 85.174 29.2906C85.1786 29.3546 85.1692 29.4188 85.1464 29.4787C85.1236 29.5387 85.088 29.593 85.0421 29.6377C84.9962 29.6819 84.9417 29.7162 84.882 29.7383C84.8222 29.7604 84.7586 29.7699 84.695 29.7662H80.8139C80.7496 29.7683 80.6856 29.7571 80.6258 29.7332C80.566 29.7093 80.5119 29.6732 80.4668 29.6273C80.4199 29.5828 80.383 29.5288 80.3585 29.469C80.3339 29.4092 80.3224 29.3448 80.3245 29.2802C80.3235 29.2188 80.3358 29.1579 80.3603 29.1016C80.3849 29.0454 80.4212 28.995 80.4668 28.9539C80.5119 28.9072 80.5658 28.87 80.6254 28.8444C80.685 28.8188 80.7491 28.8052 80.8139 28.8046ZM82.5288 26.4926C82.5936 26.4918 82.6578 26.5044 82.7175 26.5294C82.7773 26.5545 82.8312 26.5916 82.8759 26.6384C82.9673 26.7309 83.0185 26.8556 83.0183 26.9856V35.2163C83.0036 35.4544 83.0465 35.6926 83.1433 35.9106C83.21 36.0489 83.3265 36.1568 83.4696 36.2126C83.5972 36.2606 83.7324 36.2852 83.8688 36.2855C83.9502 36.2861 84.0311 36.2732 84.1083 36.2473C84.186 36.2186 84.2684 36.2045 84.3513 36.2057C84.3997 36.2058 84.4476 36.216 84.4919 36.2358C84.5361 36.2555 84.5757 36.2843 84.6082 36.3202C84.6453 36.3596 84.6742 36.406 84.6933 36.4567C84.7123 36.5073 84.7212 36.5612 84.7193 36.6153C84.7143 36.6979 84.6867 36.7775 84.6396 36.8454C84.5925 36.9134 84.5276 36.9671 84.452 37.0006C84.2593 37.1087 84.041 37.1627 83.8202 37.1568C83.7195 37.1568 83.5668 37.1568 83.3689 37.1325C83.1535 37.1114 82.9439 37.0502 82.751 36.952C82.5202 36.8286 82.3344 36.6354 82.2198 36.4001C82.0546 36.0467 81.9794 35.6579 82.0011 35.2684V26.9717C82.0016 26.9068 82.015 26.8426 82.0407 26.783C82.0663 26.7234 82.1036 26.6695 82.1504 26.6246C82.2001 26.5755 82.2593 26.5373 82.3244 26.5122C82.3895 26.4871 82.4591 26.4757 82.5288 26.4788V26.4926Z" fill="white"/>
<path d="M88.8634 35.8095C88.7798 35.6986 88.7358 35.5629 88.7384 35.4241C88.7437 35.36 88.7657 35.2983 88.8022 35.2453C88.8388 35.1923 88.8886 35.1499 88.9467 35.1221C88.9883 35.0848 89.0374 35.0566 89.0906 35.0392C89.1437 35.0219 89.2 35.0159 89.2556 35.0215C89.3795 35.0373 89.4938 35.0963 89.5785 35.1881C89.8772 35.5672 90.2491 35.8824 90.672 36.115C91.1423 36.3579 91.6667 36.4774 92.1959 36.4621C92.5103 36.4616 92.8223 36.4088 93.1193 36.3059C93.4084 36.2131 93.6697 36.0497 93.8796 35.8303C94.0818 35.6092 94.189 35.3174 94.1781 35.018C94.1846 34.8696 94.1616 34.7213 94.1104 34.5819C94.0591 34.4424 93.9807 34.3145 93.8796 34.2057C93.6579 33.991 93.3944 33.8244 93.1054 33.7162C92.7664 33.5849 92.4184 33.4782 92.064 33.3968C91.6856 33.2962 91.3246 33.1851 90.974 33.0497C90.641 32.9328 90.3248 32.7729 90.0332 32.5741C89.7654 32.3935 89.5403 32.1566 89.3737 31.8798C89.206 31.5739 89.1233 31.2287 89.1341 30.8801C89.1266 30.4455 89.2579 30.0198 89.5091 29.6651C89.7754 29.3025 90.1354 29.0193 90.5505 28.8458C91.018 28.6434 91.5233 28.5428 92.0328 28.5507C92.3413 28.5526 92.6487 28.5886 92.9492 28.6583C93.2795 28.7301 93.5984 28.8469 93.8969 29.0055C94.2155 29.1741 94.4984 29.4028 94.7301 29.6789C94.7786 29.7227 94.8174 29.7763 94.8437 29.8361C94.87 29.896 94.8834 29.9607 94.8828 30.0261C94.8801 30.0922 94.864 30.1572 94.8353 30.2169C94.8067 30.2766 94.7661 30.3298 94.7162 30.3732C94.6272 30.4391 94.5177 30.4711 94.4072 30.4635C94.3515 30.4624 94.2967 30.4494 94.2465 30.4255C94.1962 30.4015 94.1516 30.3671 94.1156 30.3246C93.8543 30.0328 93.5287 29.8058 93.1644 29.6616C92.7882 29.5108 92.386 29.4353 91.9807 29.4394C91.6723 29.4364 91.3658 29.4869 91.0746 29.5887C90.8079 29.6796 90.5688 29.8373 90.3804 30.0469C90.1831 30.2729 90.081 30.5665 90.0957 30.8662C90.1083 31.1581 90.2325 31.434 90.4428 31.6368C90.6792 31.8538 90.9566 32.0214 91.2586 32.1298C91.6324 32.2673 92.0137 32.3832 92.4007 32.4769C92.7477 32.5617 93.0896 32.666 93.4248 32.7893C93.7318 32.899 94.0225 33.0496 94.2892 33.2371C94.5397 33.4198 94.7451 33.6573 94.8898 33.9314C95.0521 34.2538 95.1297 34.6122 95.1154 34.9729C95.1262 35.423 94.9815 35.8632 94.7058 36.2191C94.4204 36.5796 94.0441 36.8575 93.6157 37.0245C93.1327 37.2142 92.6176 37.3085 92.0987 37.3022C91.503 37.3014 90.9132 37.1834 90.363 36.955C89.7736 36.7073 89.2574 36.3129 88.8634 35.8095Z" fill="white"/>
<defs>
<linearGradient id="paint0_linear_3332_33932" x1="37.1016" y1="13.5232" x2="37.1016" y2="36.7817" gradientUnits="userSpaceOnUse">
<stop stop-color="#1BB3D7"/>
<stop offset="1" stop-color="#1D83BF"/>
</linearGradient>
<linearGradient id="paint1_linear_3332_33932" x1="24.7188" y1="5.19189" x2="24.7188" y2="44.7661" gradientUnits="userSpaceOnUse">
<stop stop-color="#1BB3D7"/>
<stop offset="1" stop-color="#1D83BF"/>
</linearGradient>
<linearGradient id="paint2_linear_3332_33932" x1="30.918" y1="9.35742" x2="30.918" y2="40.6002" gradientUnits="userSpaceOnUse">
<stop stop-color="#1BB3D7"/>
<stop offset="1" stop-color="#1D83BF"/>
</linearGradient>
</defs>
</svg>
